<svg width="20" height="20" viewBox="0 0 20 20" fill="none" xmlns="http://www.w3.org/2000/svg">
<path d="M4.875 14.25C5.58333 13.7083 6.375 13.2811 7.25 12.9683C8.125 12.6561 9.04166 12.5 10 12.5C10.9583 12.5 11.875 12.6561 12.75 12.9683C13.625 13.2811 14.4167 13.7083 15.125 14.25C15.6111 13.6806 15.9897 13.0347 16.2608 12.3125C16.5314 11.5903 16.6667 10.8194 16.6667 10C16.6667 8.15278 16.0175 6.57973 14.7192 5.28084C13.4203 3.9825 11.8472 3.33334 10 3.33334C8.15278 3.33334 6.58 3.9825 5.28166 5.28084C3.98277 6.57973 3.33333 8.15278 3.33333 10C3.33333 10.8194 3.46889 11.5903 3.74 12.3125C4.01055 13.0347 4.38889 13.6806 4.875 14.25ZM10 10.8333C9.18055 10.8333 8.48944 10.5522 7.92666 9.99C7.36444 9.42723 7.08333 8.73612 7.08333 7.91667C7.08333 7.09723 7.36444 6.40612 7.92666 5.84334C8.48944 5.28112 9.18055 5.00001 10 5.00001C10.8194 5.00001 11.5106 5.28112 12.0733 5.84334C12.6356 6.40612 12.9167 7.09723 12.9167 7.91667C12.9167 8.73612 12.6356 9.42723 12.0733 9.99C11.5106 10.5522 10.8194 10.8333 10 10.8333ZM10 18.3333C8.84722 18.3333 7.76389 18.1144 6.75 17.6767C5.73611 17.2394 4.85416 16.6458 4.10416 15.8958C3.35416 15.1458 2.76055 14.2639 2.32333 13.25C1.88555 12.2361 1.66666 11.1528 1.66666 10C1.66666 8.84723 1.88555 7.76389 2.32333 6.75001C2.76055 5.73612 3.35416 4.85417 4.10416 4.10417C4.85416 3.35417 5.73611 2.76028 6.75 2.32251C7.76389 1.88528 8.84722 1.66667 10 1.66667C11.1528 1.66667 12.2361 1.88528 13.25 2.32251C14.2639 2.76028 15.1458 3.35417 15.8958 4.10417C16.6458 4.85417 17.2394 5.73612 17.6767 6.75001C18.1144 7.76389 18.3333 8.84723 18.3333 10C18.3333 11.1528 18.1144 12.2361 17.6767 13.25C17.2394 14.2639 16.6458 15.1458 15.8958 15.8958C15.1458 16.6458 14.2639 17.2394 13.25 17.6767C12.2361 18.1144 11.1528 18.3333 10 18.3333ZM10 16.6667C10.7361 16.6667 11.4306 16.5592 12.0833 16.3442C12.7361 16.1286 13.3333 15.8194 13.875 15.4167C13.3333 15.0139 12.7361 14.7047 12.0833 14.4892C11.4306 14.2742 10.7361 14.1667 10 14.1667C9.26389 14.1667 8.56944 14.2742 7.91666 14.4892C7.26389 14.7047 6.66666 15.0139 6.125 15.4167C6.66666 15.8194 7.26389 16.1286 7.91666 16.3442C8.56944 16.5592 9.26389 16.6667 10 16.6667ZM10 9.16667C10.3611 9.16667 10.6597 9.04862 10.8958 8.8125C11.1319 8.57639 11.25 8.27778 11.25 7.91667C11.25 7.55556 11.1319 7.25695 10.8958 7.02084C10.6597 6.78473 10.3611 6.66667 10 6.66667C9.63889 6.66667 9.34028 6.78473 9.10416 7.02084C8.86805 7.25695 8.75 7.55556 8.75 7.91667C8.75 8.27778 8.86805 8.57639 9.10416 8.8125C9.34028 9.04862 9.63889 9.16667 10 9.16667Z" fill="black"/>
</svg>
