<svg width="20" height="20" viewBox="0 0 20 20" fill="none" xmlns="http://www.w3.org/2000/svg">
<path d="M7.5 15.8333H15.8333V14.1667H7.5V15.8333ZM7.5 10.8333H12.5V9.16667H7.5V10.8333ZM7.5 4.16667V5.83333H17.5V4.16667H7.5ZM4.16666 3.75C4.00246 3.75005 3.83987 3.78245 3.68818 3.84534C3.5365 3.90823 3.39868 4.00038 3.28261 4.11653C3.16653 4.23268 3.07448 4.37056 3.01169 4.52229C2.9489 4.67402 2.91661 4.83663 2.91666 5.00083C2.91672 5.16504 2.94912 5.32763 3.01201 5.47932C3.0749 5.631 3.16705 5.76882 3.2832 5.88489C3.39935 6.00096 3.53722 6.09302 3.68895 6.15581C3.84068 6.2186 4.00329 6.25089 4.1675 6.25083C4.49913 6.25072 4.81713 6.11888 5.05155 5.8843C5.28597 5.64972 5.41761 5.33163 5.4175 5C5.41739 4.66837 5.28554 4.35036 5.05096 4.11594C4.81639 3.88152 4.4983 3.74989 4.16666 3.75V3.75ZM4.16666 8.75C4.00246 8.75005 3.83987 8.78245 3.68818 8.84534C3.5365 8.90823 3.39868 9.00038 3.28261 9.11653C3.16653 9.23268 3.07448 9.37056 3.01169 9.52229C2.9489 9.67402 2.91661 9.83663 2.91666 10.0008C2.91672 10.165 2.94912 10.3276 3.01201 10.4793C3.0749 10.631 3.16705 10.7688 3.2832 10.8849C3.39935 11.001 3.53722 11.093 3.68895 11.1558C3.84068 11.2186 4.00329 11.2509 4.1675 11.2508C4.49913 11.2507 4.81713 11.1189 5.05155 10.8843C5.28597 10.6497 5.41761 10.3316 5.4175 10C5.41739 9.66837 5.28554 9.35036 5.05096 9.11594C4.81639 8.88152 4.4983 8.74989 4.16666 8.75V8.75ZM4.16666 13.75C4.00246 13.7501 3.83987 13.7825 3.68818 13.8453C3.5365 13.9082 3.39868 14.0004 3.28261 14.1165C3.16653 14.2327 3.07448 14.3706 3.01169 14.5223C2.9489 14.674 2.91661 14.8366 2.91666 15.0008C2.91672 15.165 2.94912 15.3276 3.01201 15.4793C3.0749 15.631 3.16705 15.7688 3.2832 15.8849C3.39935 16.001 3.53722 16.093 3.68895 16.1558C3.84068 16.2186 4.00329 16.2509 4.1675 16.2508C4.49913 16.2507 4.81713 16.1189 5.05155 15.8843C5.28597 15.6497 5.41761 15.3316 5.4175 15C5.41739 14.6684 5.28554 14.3504 5.05096 14.1159C4.81639 13.8815 4.4983 13.7499 4.16666 13.75V13.75Z" fill="black"/>
</svg>
