<svg width="20" height="20" viewBox="0 0 20 20" fill="none" xmlns="http://www.w3.org/2000/svg">
<path d="M8.875 16.5L7.4375 15.1875C5.96528 13.8403 4.63556 12.5033 3.44833 11.1767C2.26056 9.85057 1.66667 8.3889 1.66667 6.79168C1.66667 5.48612 2.10417 4.39584 2.97917 3.52084C3.85417 2.64584 4.94445 2.20834 6.25 2.20834C6.98611 2.20834 7.68056 2.36445 8.33333 2.67668C8.98611 2.98945 9.54167 3.41668 10 3.95834C10.4583 3.41668 11.0139 2.98945 11.6667 2.67668C12.3194 2.36445 13.0139 2.20834 13.75 2.20834C15.0556 2.20834 16.1458 2.64584 17.0208 3.52084C17.8958 4.39584 18.3333 5.48612 18.3333 6.79168C18.3333 8.3889 17.7431 9.85418 16.5625 11.1875C15.3819 12.5208 14.0417 13.8611 12.5417 15.2083L11.125 16.5C10.8056 16.8056 10.4306 16.9583 10 16.9583C9.56945 16.9583 9.19445 16.8056 8.875 16.5V16.5ZM9.20833 5.62501C8.80556 5.05557 8.375 4.6214 7.91667 4.32251C7.45833 4.02418 6.90278 3.87501 6.25 3.87501C5.41667 3.87501 4.72222 4.15279 4.16667 4.70834C3.61111 5.2639 3.33333 5.95834 3.33333 6.79168C3.33333 7.5139 3.59028 8.28112 4.10417 9.09334C4.61806 9.90612 5.23278 10.6945 5.94833 11.4583C6.66333 12.2222 7.39945 12.9375 8.15667 13.6042C8.91333 14.2708 9.52778 14.8195 10 15.25C10.4722 14.8195 11.0869 14.2708 11.8442 13.6042C12.6008 12.9375 13.3369 12.2222 14.0525 11.4583C14.7675 10.6945 15.3819 9.90612 15.8958 9.09334C16.4097 8.28112 16.6667 7.5139 16.6667 6.79168C16.6667 5.95834 16.3889 5.2639 15.8333 4.70834C15.2778 4.15279 14.5833 3.87501 13.75 3.87501C13.0972 3.87501 12.5417 4.02418 12.0833 4.32251C11.625 4.6214 11.1944 5.05557 10.7917 5.62501C10.6944 5.7639 10.5764 5.86807 10.4375 5.93751C10.2986 6.00695 10.1528 6.04168 10 6.04168C9.84722 6.04168 9.70139 6.00695 9.5625 5.93751C9.42361 5.86807 9.30556 5.7639 9.20833 5.62501V5.62501Z" fill="black"/>
</svg>
