<svg width="20" height="20" viewBox="0 0 20 20" fill="none" xmlns="http://www.w3.org/2000/svg">
<path d="M17.5 9.25833V4.16666C17.5 3.72463 17.3244 3.30071 17.0118 2.98815C16.6993 2.67559 16.2754 2.49999 15.8333 2.49999H12.35C12 1.53333 11.0833 0.833328 10 0.833328C8.91667 0.833328 8 1.53333 7.65 2.49999H4.16667C3.25 2.49999 2.5 3.25 2.5 4.16666V15.8333C2.5 16.2754 2.67559 16.6993 2.98816 17.0118C3.30072 17.3244 3.72464 17.5 4.16667 17.5H9.25833C10.3083 18.5333 11.7417 19.1667 13.3333 19.1667C16.5583 19.1667 19.1667 16.5583 19.1667 13.3333C19.1667 11.7417 18.5333 10.3083 17.5 9.25833ZM10 2.49999C10.4583 2.49999 10.8333 2.875 10.8333 3.33333C10.8333 3.79166 10.4583 4.16666 10 4.16666C9.54167 4.16666 9.16667 3.79166 9.16667 3.33333C9.16667 2.875 9.54167 2.49999 10 2.49999ZM4.16667 15.8333V4.16666H5.83333V5.83333H14.1667V4.16666H15.8333V8.06666C15.075 7.70833 14.2333 7.5 13.3333 7.5H5.83333V9.16666H9.25C8.75 9.64166 8.36667 10.2083 8.06667 10.8333H5.83333V12.5H7.56667C7.525 12.775 7.5 13.05 7.5 13.3333C7.5 14.2333 7.70833 15.075 8.06667 15.8333H4.16667ZM13.3333 17.5C11.0333 17.5 9.16667 15.6333 9.16667 13.3333C9.16667 11.0333 11.0333 9.16666 13.3333 9.16666C15.6333 9.16666 17.5 11.0333 17.5 13.3333C17.5 15.6333 15.6333 17.5 13.3333 17.5ZM13.75 13.5417L16.1333 14.95L15.5083 15.9667L12.5 14.1667V10H13.75V13.5417Z" fill="black"/>
</svg>
