<svg width="20" height="20" viewBox="0 0 20 20" fill="none" xmlns="http://www.w3.org/2000/svg">
<g clip-path="url(#clip0_1_17)">
<path d="M13.3333 11.6667H14.5833V14.0167L16.6167 15.1917L15.9917 16.275L13.3333 14.7417V11.6667ZM20 14.1667C20 15.7138 19.3854 17.1975 18.2915 18.2915C17.1975 19.3854 15.7138 20 14.1667 20C11.8417 20 9.83333 18.6333 8.89167 16.6667H3.33333C2.89131 16.6667 2.46738 16.4911 2.15482 16.1785C1.84226 15.866 1.66667 15.442 1.66667 15V5.00001C1.66667 4.07501 2.40833 3.33334 3.33333 3.33334H16.6667C17.1087 3.33334 17.5326 3.50894 17.8452 3.8215C18.1577 4.13406 18.3333 4.55798 18.3333 5.00001V10.0833C19.3667 11.1333 20 12.575 20 14.1667ZM8.33333 14.1667C8.33333 12.5333 9.00833 11.0583 10.0833 10H3.33333V15H8.39167C8.33333 14.725 8.33333 14.45 8.33333 14.1667ZM14.1667 10C13.0616 10 12.0018 10.439 11.2204 11.2204C10.439 12.0018 10 13.0616 10 14.1667C10 15.2717 10.439 16.3316 11.2204 17.113C12.0018 17.8944 13.0616 18.3333 14.1667 18.3333C15.2717 18.3333 16.3315 17.8944 17.1129 17.113C17.8943 16.3316 18.3333 15.2717 18.3333 14.1667C18.3333 13.0616 17.8943 12.0018 17.1129 11.2204C16.3315 10.439 15.2717 10 14.1667 10ZM16.6667 6.66668V5.00001H3.33333V6.66668H16.6667Z" fill="black"/>
</g>
<defs>
<clipPath id="clip0_1_17">
<rect width="20" height="20" fill="white"/>
</clipPath>
</defs>
</svg>
