<svg width="20" height="20" viewBox="0 0 20 20" fill="none" xmlns="http://www.w3.org/2000/svg">
<path d="M18.75 9.91408L10.5938 1.75001C10.4473 1.60472 10.2675 1.49744 10.07 1.43753C9.87257 1.37761 9.66348 1.36688 9.46094 1.40626L3.15625 2.67189C3.0367 2.69576 2.9269 2.75451 2.8407 2.84071C2.75449 2.92691 2.69575 3.03671 2.67188 3.15626L1.40625 9.46095C1.36613 9.66227 1.37653 9.8704 1.43651 10.0667C1.4965 10.263 1.60421 10.4414 1.75 10.586L9.91406 18.75C10.0296 18.8667 10.1671 18.9593 10.3186 19.0226C10.4701 19.0858 10.6327 19.1183 10.7969 19.1183C10.9611 19.1183 11.1236 19.0858 11.2752 19.0226C11.4267 18.9593 11.5642 18.8667 11.6797 18.75L18.75 11.6797C18.8667 11.5642 18.9593 11.4267 19.0225 11.2752C19.0858 11.1236 19.1183 10.9611 19.1183 10.7969C19.1183 10.6327 19.0858 10.4701 19.0225 10.3186C18.9593 10.1671 18.8667 10.0296 18.75 9.91408V9.91408ZM10.7969 17.8672L2.63281 9.70314L3.8125 3.81251L9.70313 2.63283L17.8672 10.7969L10.7969 17.8672ZM7.5 6.56251C7.5 6.74793 7.44502 6.92919 7.342 7.08336C7.23899 7.23753 7.09257 7.35769 6.92127 7.42865C6.74996 7.49961 6.56146 7.51817 6.3796 7.482C6.19775 7.44583 6.0307 7.35654 5.89959 7.22543C5.76848 7.09432 5.67919 6.92727 5.64301 6.74541C5.60684 6.56355 5.62541 6.37505 5.69636 6.20375C5.76732 6.03244 5.88748 5.88602 6.04165 5.78301C6.19582 5.68 6.37708 5.62501 6.5625 5.62501C6.81114 5.62501 7.0496 5.72379 7.22541 5.8996C7.40123 6.07542 7.5 6.31387 7.5 6.56251Z" fill="black"/>
</svg>
