<svg width="18" height="18" viewBox="0 0 18 18" fill="none" xmlns="http://www.w3.org/2000/svg">
<g clip-path="url(#clip0_1_9)">
<path d="M9.97014 1.64263e-06C10.2347 1.64263e-06 10.4714 0.164702 10.5605 0.411302L11.1959 2.1726C11.4236 2.2293 11.6189 2.286 11.7845 2.3454C11.9654 2.4102 12.1985 2.5083 12.4865 2.6424L13.9661 1.8594C14.0869 1.79542 14.2252 1.77232 14.3602 1.79358C14.4952 1.81484 14.6197 1.8793 14.7149 1.9773L16.0163 3.3228C16.1891 3.5019 16.2377 3.7638 16.1405 3.9924L15.4466 5.6187C15.5618 5.8302 15.6536 6.0111 15.7238 6.1623C15.7994 6.327 15.893 6.5538 16.0046 6.8463L17.6219 7.5393C17.8649 7.6428 18.0152 7.8858 17.999 8.1459L17.8802 10.0134C17.8721 10.1347 17.8286 10.251 17.755 10.3478C17.6814 10.4446 17.581 10.5176 17.4662 10.5579L15.9344 11.1024C15.8903 11.3139 15.8444 11.4948 15.7958 11.6478C15.7175 11.8841 15.628 12.1166 15.5276 12.3444L16.2971 14.0454C16.3515 14.1649 16.3661 14.2987 16.3389 14.4271C16.3117 14.5555 16.2441 14.6719 16.1459 14.7591L14.6825 16.0659C14.5862 16.1516 14.4659 16.2058 14.3379 16.2212C14.2098 16.2367 14.0801 16.2126 13.9661 16.1523L12.4577 15.3531C12.2217 15.4781 11.9783 15.5884 11.7287 15.6834L11.0699 15.93L10.4849 17.55C10.4416 17.6686 10.3634 17.7714 10.2606 17.8448C10.1578 17.9182 10.0352 17.9588 9.90894 17.9613L8.19894 18C8.06931 18.0034 7.94181 17.9665 7.83398 17.8945C7.72616 17.8225 7.64331 17.7188 7.59684 17.5977L6.90744 15.7734C6.67222 15.693 6.43933 15.606 6.20904 15.5124C6.02069 15.4309 5.83518 15.3429 5.65284 15.2487L3.94284 15.9795C3.83017 16.0276 3.70595 16.0418 3.58531 16.0206C3.46467 15.9993 3.35281 15.9435 3.26334 15.8598L1.99794 14.6727C1.90373 14.5847 1.83957 14.4693 1.81454 14.3429C1.7895 14.2164 1.80486 14.0853 1.85844 13.968L2.59374 12.366C2.49595 12.1763 2.40529 11.9829 2.32194 11.7864C2.22465 11.5459 2.13461 11.3025 2.05194 11.0565L0.440942 10.566C0.309992 10.5264 0.195777 10.4447 0.116032 10.3336C0.0362883 10.2224 -0.00452127 10.088 -5.83769e-05 9.9513L0.0629416 8.2224C0.067426 8.1096 0.102665 8.00017 0.164847 7.90594C0.227029 7.81172 0.313788 7.73628 0.415742 7.6878L2.10594 6.876C2.18424 6.5889 2.25264 6.3657 2.31294 6.2028C2.39785 5.98522 2.49214 5.77142 2.59554 5.562L1.86294 4.014C1.80734 3.89645 1.79046 3.76429 1.81472 3.63653C1.83898 3.50877 1.90313 3.392 1.99794 3.303L3.26154 2.1096C3.35012 2.02606 3.46095 1.96989 3.58071 1.94785C3.70046 1.92582 3.82403 1.93886 3.93654 1.9854L5.64474 2.691C5.83374 2.565 6.00474 2.4633 6.15954 2.3814C6.34404 2.2833 6.59064 2.1807 6.90114 2.07L7.49514 0.413102C7.53906 0.291843 7.61933 0.187095 7.725 0.11316C7.83066 0.0392244 7.95658 -0.000293626 8.08554 1.64263e-06H9.97014ZM9.52914 1.2393H8.52744L7.98294 2.7639C7.95093 2.8528 7.89913 2.93326 7.83146 2.99921C7.7638 3.06516 7.68203 3.11488 7.59234 3.1446C7.19994 3.2751 6.91644 3.3876 6.75084 3.4749C6.57534 3.5676 6.35124 3.7089 6.08484 3.8979C5.99765 3.95909 5.89642 3.99728 5.79054 4.00892C5.68465 4.02056 5.57755 4.00529 5.47914 3.9645L3.83214 3.285L3.19044 3.8916L3.85914 5.3046C3.89918 5.38867 3.9195 5.48077 3.91856 5.57388C3.91763 5.66699 3.89546 5.75865 3.85374 5.8419C3.67374 6.2028 3.55224 6.4692 3.49104 6.633C3.39719 6.90568 3.3161 7.18258 3.24804 7.4628C3.22543 7.55051 3.18391 7.63221 3.12638 7.70217C3.06886 7.77213 2.99672 7.82866 2.91504 7.8678L1.30404 8.6409L1.27164 9.5229L2.72964 9.9657C2.92314 10.0242 3.07614 10.1727 3.14004 10.3635C3.28404 10.7955 3.39924 11.1141 3.48204 11.3139C3.59175 11.5675 3.71308 11.8158 3.84564 12.0582C3.89049 12.1416 3.91537 12.2343 3.91834 12.3289C3.92131 12.4235 3.90228 12.5176 3.86274 12.6036L3.18684 14.0778L3.82674 14.679L5.43054 13.9932C5.51693 13.9563 5.61046 13.9391 5.70433 13.9428C5.7982 13.9465 5.89006 13.9711 5.97324 14.0148C6.30174 14.1876 6.54654 14.3073 6.70134 14.373C6.85884 14.4387 7.16034 14.5485 7.59774 14.6979C7.68458 14.7276 7.7638 14.776 7.82976 14.8398C7.89572 14.9036 7.94679 14.9811 7.97934 15.0669L8.61654 16.7508L9.44994 16.7328L9.98724 15.2442C10.018 15.1593 10.0668 15.082 10.1304 15.0178C10.1939 14.9536 10.2707 14.9041 10.3553 14.8725L11.2886 14.5233C11.5244 14.436 11.8106 14.2983 12.1445 14.1093C12.237 14.0574 12.3409 14.0295 12.4469 14.0283C12.5529 14.027 12.6575 14.0524 12.7511 14.1021L14.1704 14.8536L14.9687 14.1417L14.2703 12.6C14.2345 12.5209 14.2158 12.435 14.2157 12.3481C14.2155 12.2612 14.2339 12.1753 14.2694 12.096C14.4332 11.7297 14.5439 11.4534 14.5997 11.277C14.6546 11.1042 14.7113 10.8549 14.7662 10.5345C14.7851 10.4257 14.8327 10.3238 14.904 10.2395C14.9754 10.1552 15.0679 10.0914 15.1721 10.0548L16.6553 9.5283L16.7201 8.5023L15.2621 7.8777C15.1845 7.84466 15.1144 7.79619 15.0561 7.73523C14.9978 7.67428 14.9524 7.60211 14.9228 7.5231C14.8189 7.23622 14.7054 6.95286 14.5826 6.6735C14.4664 6.43026 14.3403 6.19186 14.2046 5.9589C14.1576 5.8766 14.1303 5.78452 14.1249 5.6899C14.1194 5.59528 14.1359 5.50067 14.1731 5.4135L14.8256 3.8835L14.138 3.1725L12.7988 3.8817C12.7114 3.92807 12.6143 3.95328 12.5154 3.95532C12.4164 3.95735 12.3184 3.93614 12.2291 3.8934C11.9449 3.75207 11.6542 3.62413 11.3579 3.51C11.1054 3.42518 10.8478 3.35605 10.5866 3.303C10.483 3.28103 10.3867 3.23308 10.3067 3.16365C10.2268 3.09422 10.1657 3.00559 10.1294 2.9061L9.52824 1.2384L9.52914 1.2393ZM9.02154 5.0769C11.213 5.0769 12.9905 6.8346 12.9905 9.0018C12.9905 11.169 11.213 12.9258 9.02154 12.9258C6.82914 12.9258 5.05254 11.169 5.05254 9.0018C5.05254 6.8346 6.82914 5.0778 9.02154 5.0778V5.0769ZM9.02154 6.3171C7.52124 6.3171 6.30534 7.5186 6.30534 9.0018C6.30534 10.485 7.52124 11.6874 9.02154 11.6874C10.5209 11.6874 11.7368 10.485 11.7368 9.0018C11.7368 7.5186 10.5218 6.3171 9.02154 6.3171Z" fill="black"/>
</g>
<defs>
<clipPath id="clip0_1_9">
<rect width="18" height="18" fill="white"/>
</clipPath>
</defs>
</svg>
